<svg xmlns="http://www.w3.org/2000/svg" viewBox="0 0 1240 720" font-family="ui-monospace, 'SF Mono', Menlo, monospace" role="img" aria-label="AI Command Center dashboard - spend, requests, tokens, latency tiles; spend over time stacked by project; spend by project; spend by model; requests and errors; providers">
  <defs>
    <style>
      .lbl{fill:#898781;font-size:9px;letter-spacing:1.3px}
      .val{fill:#fff;font-size:22px;font-weight:600}
      .sub{fill:#898781;font-size:10px}
      .hd{fill:#c3c2b7;font-size:10px;letter-spacing:1.3px}
      .rowlbl{fill:#c3c2b7;font-size:11px}
      .amt{fill:#898781;font-size:9.5px}
    </style>
  </defs>
  <rect width="1240" height="720" fill="#0d0d0d"/>

  <!-- top bar -->
  <rect width="1240" height="52" fill="#0f0f0f"/><line x1="0" y1="52" x2="1240" y2="52" stroke="rgba(255,255,255,.09)"/>
  <path d="M36 18 47 27 36 36 25 27Z" fill="none" stroke="#3987e5" stroke-width="2.1"/><circle cx="36" cy="27" r="2.8" fill="#0ca30c"/>
  <text x="60" y="31" fill="#fff" font-size="12" font-weight="700" letter-spacing="2.3">AI COMMAND CENTER</text>
  <text x="252" y="31" class="sub">v0.1.0</text>
  <rect x="924" y="15" width="84" height="22" rx="6" fill="#1a1a19" stroke="rgba(255,255,255,.16)"/><rect x="924" y="15" width="28" height="22" rx="6" fill="rgba(57,135,229,.18)"/>
  <text x="938" y="30" fill="#3987e5" font-size="10" text-anchor="middle">₹</text><text x="966" y="30" fill="#898781" font-size="10" text-anchor="middle">$</text><text x="994" y="30" fill="#898781" font-size="10" text-anchor="middle">€</text>
  <circle cx="1180" cy="26" r="4" fill="#0ca30c"/><text x="1192" y="30" fill="#0ca30c" font-size="10">LIVE</text>

  <!-- tiles -->
  <g>
    <rect x="20" y="66" width="230" height="80" rx="9" fill="#1a1a19" stroke="rgba(57,135,229,.4)"/>
    <text x="34" y="88" class="lbl">TOTAL SPEND</text><text x="34" y="114" class="val" fill="#3987e5">₹2,794.11</text><text x="34" y="134" fill="#d03b3b" font-size="10">▲ 6% </text><text x="66" y="134" class="sub">vs prev period</text>
    <rect x="258" y="66" width="230" height="80" rx="9" fill="#1a1a19" stroke="rgba(255,255,255,.09)"/>
    <text x="272" y="88" class="lbl">REQUESTS</text><text x="272" y="114" class="val">4,547</text><text x="272" y="134" fill="#d03b3b" font-size="10">73 errors (1.6%)</text>
    <rect x="496" y="66" width="230" height="80" rx="9" fill="#1a1a19" stroke="rgba(255,255,255,.09)"/>
    <text x="510" y="88" class="lbl">TOKENS</text><text x="510" y="114" class="val">22.1M</text><text x="510" y="134" class="sub">19.4M in · 2.7M out</text>
    <rect x="734" y="66" width="230" height="80" rx="9" fill="#1a1a19" stroke="rgba(255,255,255,.09)"/>
    <text x="748" y="88" class="lbl">LATENCY P50</text><text x="748" y="114" class="val">3665ms</text><text x="748" y="134" class="sub">p95 9992ms</text>
    <rect x="972" y="66" width="248" height="80" rx="9" fill="#1a1a19" stroke="rgba(255,255,255,.09)"/>
    <text x="986" y="88" class="lbl">PROJECTS</text><text x="986" y="114" class="val">4</text><text x="986" y="134" class="sub">8 models · 4 providers</text>
  </g>

  <!-- spend over time -->
  <rect x="20" y="160" width="700" height="270" rx="9" fill="#1a1a19" stroke="rgba(255,255,255,.09)"/>
  <text x="38" y="186" class="hd">SPEND OVER TIME</text><text x="702" y="186" class="sub" text-anchor="end">daily</text>
  <line x1="86" y1="392" x2="704" y2="392" stroke="rgba(255,255,255,.09)"/>
  <text x="38" y="220" class="sub" font-size="8">₹763</text><text x="38" y="300" class="sub" font-size="8">₹381</text>
  <g>
    <rect x="96" y="356" width="58" height="36" fill="#1baf7a"/><rect x="96" y="349" width="58" height="7" fill="#eda100"/><text x="125" y="408" class="sub" font-size="8" text-anchor="middle">30 Jun</text>
    <rect x="182" y="256" width="58" height="136" fill="#1baf7a"/><rect x="182" y="240" width="58" height="16" fill="#eda100"/><rect x="182" y="234" width="58" height="6" fill="#60a5fa"/><rect x="182" y="230" width="58" height="4" fill="#22c55e"/><text x="211" y="408" class="sub" font-size="8" text-anchor="middle">1 Jul</text>
    <rect x="268" y="296" width="58" height="96" fill="#1baf7a"/><rect x="268" y="281" width="58" height="15" fill="#eda100"/><rect x="268" y="275" width="58" height="6" fill="#60a5fa"/><text x="297" y="408" class="sub" font-size="8" text-anchor="middle">2 Jul</text>
    <rect x="354" y="242" width="58" height="150" fill="#1baf7a"/><rect x="354" y="222" width="58" height="20" fill="#eda100"/><rect x="354" y="216" width="58" height="6" fill="#60a5fa"/><rect x="354" y="212" width="58" height="4" fill="#22c55e"/><text x="383" y="408" class="sub" font-size="8" text-anchor="middle">3 Jul</text>
    <rect x="440" y="342" width="58" height="50" fill="#1baf7a"/><rect x="440" y="335" width="58" height="7" fill="#eda100"/><text x="469" y="408" class="sub" font-size="8" text-anchor="middle">4 Jul</text>
    <rect x="526" y="334" width="58" height="58" fill="#1baf7a"/><rect x="526" y="326" width="58" height="8" fill="#eda100"/><text x="555" y="408" class="sub" font-size="8" text-anchor="middle">5 Jul</text>
    <rect x="612" y="270" width="58" height="122" fill="#1baf7a"/><rect x="612" y="256" width="58" height="14" fill="#eda100"/><rect x="612" y="250" width="58" height="6" fill="#60a5fa"/><text x="641" y="408" class="sub" font-size="8" text-anchor="middle">6 Jul</text>
  </g>
  <g font-size="9" fill="#c3c2b7"><rect x="96" y="416" width="7" height="7" rx="2" fill="#1baf7a"/><text x="108" y="423">claims-copilot</text><rect x="200" y="416" width="7" height="7" rx="2" fill="#eda100"/><text x="212" y="423">invoice-extraction</text><rect x="330" y="416" width="7" height="7" rx="2" fill="#60a5fa"/><text x="342" y="423">catalog-enrichment</text><rect x="470" y="416" width="7" height="7" rx="2" fill="#22c55e"/><text x="482" y="423">support-chatbot</text></g>

  <!-- spend by project -->
  <rect x="728" y="160" width="492" height="270" rx="9" fill="#1a1a19" stroke="rgba(255,255,255,.09)"/>
  <text x="746" y="186" class="hd">SPEND BY PROJECT</text>
  <g>
    <text x="906" y="228" class="rowlbl" text-anchor="end">claims-copilot</text><rect x="916" y="218" width="230" height="15" rx="3" fill="#1baf7a"/><text x="1156" y="230" class="amt">₹1,956</text>
    <text x="906" y="272" class="rowlbl" text-anchor="end">invoice-extraction</text><rect x="916" y="262" width="60" height="15" rx="3" fill="#eda100"/><text x="984" y="274" class="amt">₹472</text>
    <text x="906" y="316" class="rowlbl" text-anchor="end">catalog-enrichment</text><rect x="916" y="306" width="26" height="15" rx="3" fill="#60a5fa"/><text x="950" y="318" class="amt">₹190</text>
    <text x="906" y="360" class="rowlbl" text-anchor="end">support-chatbot</text><rect x="916" y="350" width="23" height="15" rx="3" fill="#22c55e"/><text x="947" y="362" class="amt">₹176</text>
  </g>
  <text x="746" y="410" class="sub">₹ live FX · stored in USD · no prompt bodies logged</text>

  <!-- bottom row: spend by model / requests & errors / providers -->
  <rect x="20" y="440" width="393" height="256" rx="9" fill="#1a1a19" stroke="rgba(255,255,255,.09)"/>
  <text x="38" y="466" class="hd">SPEND BY MODEL</text>
  <g font-size="10">
    <text x="150" y="498" class="rowlbl" text-anchor="end">claude-sonnet-4-5</text><rect x="158" y="489" width="210" height="13" rx="3" fill="#256abf"/><text x="374" y="500" class="amt">₹1,547</text>
    <text x="150" y="522" class="rowlbl" text-anchor="end">gpt-4.1</text><rect x="158" y="513" width="56" height="13" rx="3" fill="#256abf"/><text x="220" y="524" class="amt">₹401</text>
    <text x="150" y="546" class="rowlbl" text-anchor="end">claude-opus-4-5</text><rect x="158" y="537" width="36" height="13" rx="3" fill="#256abf"/><text x="200" y="548" class="amt">₹253</text>
    <text x="150" y="570" class="rowlbl" text-anchor="end">gemini-2.5-flash</text><rect x="158" y="561" width="30" height="13" rx="3" fill="#256abf"/><text x="194" y="572" class="amt">₹215</text>
    <text x="150" y="594" class="rowlbl" text-anchor="end">claude-haiku-4-5</text><rect x="158" y="585" width="22" height="13" rx="3" fill="#256abf"/><text x="186" y="596" class="amt">₹157</text>
    <text x="150" y="618" class="rowlbl" text-anchor="end">gpt-4o-mini</text><rect x="158" y="609" width="22" height="13" rx="3" fill="#256abf"/><text x="186" y="620" class="amt">₹156</text>
    <text x="150" y="642" class="rowlbl" text-anchor="end">deepseek-chat</text><rect x="158" y="633" width="10" height="13" rx="3" fill="#256abf"/><text x="174" y="644" class="amt">₹64</text>
  </g>

  <rect x="421" y="440" width="393" height="256" rx="9" fill="#1a1a19" stroke="rgba(255,255,255,.09)"/>
  <text x="439" y="466" class="hd">REQUESTS &amp; ERRORS</text>
  <text x="439" y="492" class="sub" font-size="8">1,000</text><text x="439" y="600" class="sub" font-size="8">0</text>
  <polyline fill="none" stroke="#3987e5" stroke-width="2" points="470,560 510,510 550,494 590,496 630,540 670,590 710,560 750,505 790,520"/>
  <g fill="#d03b3b"><rect x="506" y="596" width="10" height="5"/><rect x="546" y="596" width="10" height="6"/><rect x="586" y="596" width="10" height="4"/><rect x="706" y="596" width="10" height="7"/></g>
  <line x1="439" y1="602" x2="796" y2="602" stroke="rgba(255,255,255,.09)"/>
  <g font-size="9" fill="#c3c2b7"><rect x="470" y="618" width="7" height="7" rx="2" fill="#3987e5"/><text x="482" y="625">requests</text><rect x="560" y="618" width="7" height="7" rx="2" fill="#d03b3b"/><text x="572" y="625">errors</text></g>

  <rect x="822" y="440" width="398" height="256" rx="9" fill="#1a1a19" stroke="rgba(255,255,255,.09)"/>
  <text x="840" y="466" class="hd">PROVIDERS</text>
  <g font-size="10.5">
    <text x="840" y="500" class="rowlbl">anthropic</text><rect x="920" y="493" width="230" height="7" rx="3" fill="#3987e5"/><text x="1156" y="500" class="amt" text-anchor="end">₹1,956 · 1.1k</text>
    <text x="840" y="530" class="rowlbl">openai</text><rect x="920" y="523" width="66" height="7" rx="3" fill="#3987e5"/><text x="1156" y="530" class="amt" text-anchor="end">₹558 · 2.2k</text>
    <text x="840" y="560" class="rowlbl">gemini</text><rect x="920" y="553" width="26" height="7" rx="3" fill="#3987e5"/><text x="1156" y="560" class="amt" text-anchor="end">₹215 · 954</text>
    <text x="840" y="590" class="rowlbl">deepseek</text><rect x="920" y="583" width="9" height="7" rx="3" fill="#3987e5"/><text x="1156" y="590" class="amt" text-anchor="end">₹64 · 284</text>
  </g>
  <text x="840" y="650" class="sub" font-size="9">provider keys pass through · telemetry stays local</text>
</svg>
