<svg xmlns="http://www.w3.org/2000/svg" viewBox="0 0 1000 300" font-family="ui-monospace, 'SF Mono', Menlo, monospace" role="img" aria-label="How it works: your apps in any language call the gateway via a base-URL change; it forwards to the provider untouched and logs token, cost and latency metadata; the dashboard shows it.">
  <rect width="1000" height="300" fill="#0d0d0d"/>
  <defs>
    <marker id="arr" markerWidth="9" markerHeight="9" refX="7" refY="4" orient="auto"><path d="M0 0 L8 4 L0 8Z" fill="#6e7681"/></marker>
    <style>.t{fill:#c3c2b7;font-size:12px}.s{fill:#898781;font-size:10px}.h{fill:#fff;font-size:13px;font-weight:600}.m{fill:#3987e5;font-size:10px}</style>
  </defs>

  <!-- apps -->
  <g>
    <rect x="30" y="70" width="180" height="160" rx="10" fill="#16181d" stroke="rgba(255,255,255,.1)"/>
    <text x="120" y="96" class="h" text-anchor="middle">Your apps</text>
    <text x="120" y="114" class="s" text-anchor="middle">any language</text>
    <g text-anchor="middle">
      <rect x="52" y="128" width="60" height="26" rx="6" fill="#1c1f26"/><text x="82" y="145" class="t" font-size="10">Python</text>
      <rect x="128" y="128" width="60" height="26" rx="6" fill="#1c1f26"/><text x="158" y="145" class="t" font-size="10">Node</text>
      <rect x="52" y="160" width="60" height="26" rx="6" fill="#1c1f26"/><text x="82" y="177" class="t" font-size="10">Java</text>
      <rect x="128" y="160" width="60" height="26" rx="6" fill="#1c1f26"/><text x="158" y="177" class="t" font-size="10">Go / curl</text>
    </g>
    <text x="120" y="210" class="m" text-anchor="middle">base_url →</text>
  </g>

  <line x1="212" y1="150" x2="356" y2="150" stroke="#6e7681" stroke-width="1.6" marker-end="url(#arr)"/>

  <!-- gateway -->
  <rect x="360" y="55" width="270" height="190" rx="10" fill="#16181d" stroke="rgba(57,135,229,.5)"/>
  <path d="M495 78 L512 92 L495 106 L478 92Z" fill="none" stroke="#3987e5" stroke-width="2"/><circle cx="495" cy="92" r="3" fill="#0ca30c"/>
  <text x="495" y="128" class="h" text-anchor="middle">AI Command Center</text>
  <text x="495" y="146" class="s" text-anchor="middle">transparent gateway :4321</text>
  <g text-anchor="middle">
    <text x="495" y="172" class="t" font-size="10.5">forwards request untouched (key included)</text>
    <text x="495" y="190" class="t" font-size="10.5">streams response straight back</text>
    <text x="495" y="208" class="m">logs tokens · cost · latency - metadata only</text>
    <text x="495" y="228" class="s">no prompt/response bodies stored</text>
  </g>

  <line x1="632" y1="150" x2="776" y2="150" stroke="#6e7681" stroke-width="1.6" marker-end="url(#arr)"/>

  <!-- providers -->
  <rect x="780" y="70" width="190" height="160" rx="10" fill="#16181d" stroke="rgba(255,255,255,.1)"/>
  <text x="875" y="96" class="h" text-anchor="middle">LLM providers</text>
  <g text-anchor="middle" fill="#c3c2b7" font-size="10">
    <text x="875" y="122">OpenAI · Anthropic</text>
    <text x="875" y="142">Gemini · Mistral</text>
    <text x="875" y="162">DeepSeek · xAI · Groq</text>
    <text x="875" y="182">Together · OpenRouter</text>
    <text x="875" y="202">Ollama · + custom</text>
  </g>

  <!-- dashboard callout -->
  <line x1="495" y1="245" x2="495" y2="272" stroke="#6e7681" stroke-width="1.6" marker-end="url(#arr)"/>
  <text x="510" y="268" class="s">→ dashboard: spend, tokens, latency, live feed - per project, in ₹/$/€</text>
</svg>
